<mxfile host="www.draw.io" modified="2019-10-17T07:04:22.715Z" agent="Mozilla/5.0 (Windows NT 10.0; WOW64) AppleWebKit/537.36 (KHTML, like Gecko) Chrome/77.0.3865.120 Safari/537.36" etag="DPH6wEpbjres7b4A8AAF" version="12.1.2" type="github" pages="1">
  <diagram id="xphFqxWrpTtehxgpf2VP" name="Page-1">
    <mxGraphModel dx="926" dy="419" grid="1" gridSize="10" guides="1" tooltips="1" connect="1" arrows="1" fold="1" page="1" pageScale="1" pageWidth="850" pageHeight="1100" math="0" shadow="0">
      <root>
        <mxCell id="0"/>
        <mxCell id="1" parent="0"/>
        <mxCell id="RlJLiBgnfKAc0p-ZitWW-1" value="START" style="strokeWidth=2;html=1;shape=mxgraph.flowchart.start_1;whiteSpace=wrap;" parent="1" vertex="1">
          <mxGeometry x="330" y="20" width="100" height="60" as="geometry"/>
        </mxCell>
        <mxCell id="RlJLiBgnfKAc0p-ZitWW-2" value="" style="endArrow=classic;html=1;exitX=0.5;exitY=1;exitDx=0;exitDy=0;exitPerimeter=0;entryX=0.5;entryY=0;entryDx=0;entryDy=0;" parent="1" source="RlJLiBgnfKAc0p-ZitWW-1" target="RlJLiBgnfKAc0p-ZitWW-3" edge="1">
          <mxGeometry width="50" height="50" relative="1" as="geometry">
            <mxPoint x="330" y="150" as="sourcePoint"/>
            <mxPoint x="380" y="140" as="targetPoint"/>
          </mxGeometry>
        </mxCell>
        <mxCell id="RlJLiBgnfKAc0p-ZitWW-3" value="Establishing A Server On AWS Using JAVA" style="rounded=0;whiteSpace=wrap;html=1;" parent="1" vertex="1">
          <mxGeometry x="320" y="140" width="120" height="60" as="geometry"/>
        </mxCell>
        <mxCell id="RlJLiBgnfKAc0p-ZitWW-4" value="" style="endArrow=classic;html=1;exitX=0.5;exitY=1;exitDx=0;exitDy=0;" parent="1" source="RlJLiBgnfKAc0p-ZitWW-3" edge="1">
          <mxGeometry width="50" height="50" relative="1" as="geometry">
            <mxPoint x="320" y="270" as="sourcePoint"/>
            <mxPoint x="380" y="240" as="targetPoint"/>
          </mxGeometry>
        </mxCell>
        <mxCell id="RlJLiBgnfKAc0p-ZitWW-7" style="edgeStyle=orthogonalEdgeStyle;rounded=0;orthogonalLoop=1;jettySize=auto;html=1;" parent="1" source="RlJLiBgnfKAc0p-ZitWW-5" edge="1">
          <mxGeometry relative="1" as="geometry">
            <mxPoint x="380" y="340" as="targetPoint"/>
          </mxGeometry>
        </mxCell>
        <mxCell id="RlJLiBgnfKAc0p-ZitWW-5" value="Client Opens The App&amp;nbsp;" style="rounded=0;whiteSpace=wrap;html=1;" parent="1" vertex="1">
          <mxGeometry x="320" y="240" width="120" height="60" as="geometry"/>
        </mxCell>
        <mxCell id="RlJLiBgnfKAc0p-ZitWW-9" style="edgeStyle=orthogonalEdgeStyle;rounded=0;orthogonalLoop=1;jettySize=auto;html=1;" parent="1" source="RlJLiBgnfKAc0p-ZitWW-8" target="RlJLiBgnfKAc0p-ZitWW-10" edge="1">
          <mxGeometry relative="1" as="geometry">
            <mxPoint x="380" y="440" as="targetPoint"/>
          </mxGeometry>
        </mxCell>
        <mxCell id="RlJLiBgnfKAc0p-ZitWW-8" value="Client Enters The IP Address Of The Server" style="rounded=0;whiteSpace=wrap;html=1;" parent="1" vertex="1">
          <mxGeometry x="320" y="340" width="120" height="60" as="geometry"/>
        </mxCell>
        <mxCell id="RlJLiBgnfKAc0p-ZitWW-11" style="edgeStyle=orthogonalEdgeStyle;rounded=0;orthogonalLoop=1;jettySize=auto;html=1;exitX=1;exitY=0.5;exitDx=0;exitDy=0;" parent="1" source="RlJLiBgnfKAc0p-ZitWW-10" target="RlJLiBgnfKAc0p-ZitWW-12" edge="1">
          <mxGeometry relative="1" as="geometry">
            <mxPoint x="530" y="480" as="targetPoint"/>
          </mxGeometry>
        </mxCell>
        <mxCell id="RlJLiBgnfKAc0p-ZitWW-15" style="edgeStyle=orthogonalEdgeStyle;rounded=0;orthogonalLoop=1;jettySize=auto;html=1;" parent="1" source="RlJLiBgnfKAc0p-ZitWW-10" target="RlJLiBgnfKAc0p-ZitWW-16" edge="1">
          <mxGeometry relative="1" as="geometry">
            <mxPoint x="250" y="490" as="targetPoint"/>
          </mxGeometry>
        </mxCell>
        <mxCell id="RlJLiBgnfKAc0p-ZitWW-10" value="If IP Address Is True" style="rhombus;whiteSpace=wrap;html=1;" parent="1" vertex="1">
          <mxGeometry x="320" y="430" width="120" height="100" as="geometry"/>
        </mxCell>
        <mxCell id="RlJLiBgnfKAc0p-ZitWW-13" style="edgeStyle=orthogonalEdgeStyle;rounded=0;orthogonalLoop=1;jettySize=auto;html=1;" parent="1" source="RlJLiBgnfKAc0p-ZitWW-12" target="RlJLiBgnfKAc0p-ZitWW-14" edge="1">
          <mxGeometry relative="1" as="geometry">
            <mxPoint x="570" y="560" as="targetPoint"/>
          </mxGeometry>
        </mxCell>
        <mxCell id="RlJLiBgnfKAc0p-ZitWW-12" value="Client Is Asked To Enter The Name" style="rounded=0;whiteSpace=wrap;html=1;" parent="1" vertex="1">
          <mxGeometry x="510" y="450" width="120" height="60" as="geometry"/>
        </mxCell>
        <mxCell id="RlJLiBgnfKAc0p-ZitWW-26" style="edgeStyle=orthogonalEdgeStyle;rounded=0;orthogonalLoop=1;jettySize=auto;html=1;entryX=0.5;entryY=0;entryDx=0;entryDy=0;" parent="1" source="RlJLiBgnfKAc0p-ZitWW-14" target="RlJLiBgnfKAc0p-ZitWW-25" edge="1">
          <mxGeometry relative="1" as="geometry"/>
        </mxCell>
        <mxCell id="RlJLiBgnfKAc0p-ZitWW-14" value="Client Enters The Chat Box" style="rounded=0;whiteSpace=wrap;html=1;" parent="1" vertex="1">
          <mxGeometry x="510" y="560" width="120" height="60" as="geometry"/>
        </mxCell>
        <mxCell id="RlJLiBgnfKAc0p-ZitWW-16" value="&quot;Server Not Available&quot; . Client Is Asked To Enter The IP Address Again." style="rounded=0;whiteSpace=wrap;html=1;" parent="1" vertex="1">
          <mxGeometry x="120" y="440" width="110" height="80" as="geometry"/>
        </mxCell>
        <mxCell id="RlJLiBgnfKAc0p-ZitWW-17" value="NO" style="text;html=1;strokeColor=none;fillColor=none;align=center;verticalAlign=middle;whiteSpace=wrap;rounded=0;" parent="1" vertex="1">
          <mxGeometry x="260" y="450" width="40" height="20" as="geometry"/>
        </mxCell>
        <mxCell id="RlJLiBgnfKAc0p-ZitWW-18" value="YES" style="text;html=1;strokeColor=none;fillColor=none;align=center;verticalAlign=middle;whiteSpace=wrap;rounded=0;" parent="1" vertex="1">
          <mxGeometry x="440" y="450" width="40" height="20" as="geometry"/>
        </mxCell>
        <mxCell id="RlJLiBgnfKAc0p-ZitWW-22" value="" style="endArrow=none;html=1;entryX=0;entryY=0.5;entryDx=0;entryDy=0;" parent="1" target="RlJLiBgnfKAc0p-ZitWW-16" edge="1">
          <mxGeometry width="50" height="50" relative="1" as="geometry">
            <mxPoint x="40" y="480" as="sourcePoint"/>
            <mxPoint x="170" y="640" as="targetPoint"/>
          </mxGeometry>
        </mxCell>
        <mxCell id="RlJLiBgnfKAc0p-ZitWW-23" value="" style="endArrow=none;html=1;" parent="1" edge="1">
          <mxGeometry width="50" height="50" relative="1" as="geometry">
            <mxPoint x="40" y="320" as="sourcePoint"/>
            <mxPoint x="40" y="480" as="targetPoint"/>
          </mxGeometry>
        </mxCell>
        <mxCell id="RlJLiBgnfKAc0p-ZitWW-24" value="" style="endArrow=classic;html=1;" parent="1" edge="1">
          <mxGeometry width="50" height="50" relative="1" as="geometry">
            <mxPoint x="40" y="320" as="sourcePoint"/>
            <mxPoint x="380" y="320" as="targetPoint"/>
          </mxGeometry>
        </mxCell>
        <mxCell id="RlJLiBgnfKAc0p-ZitWW-29" style="edgeStyle=orthogonalEdgeStyle;rounded=0;orthogonalLoop=1;jettySize=auto;html=1;entryX=1;entryY=0.5;entryDx=0;entryDy=0;" parent="1" source="RlJLiBgnfKAc0p-ZitWW-25" target="RlJLiBgnfKAc0p-ZitWW-28" edge="1">
          <mxGeometry relative="1" as="geometry"/>
        </mxCell>
        <mxCell id="RlJLiBgnfKAc0p-ZitWW-25" value="Client Chats With Different Users." style="rounded=0;whiteSpace=wrap;html=1;" parent="1" vertex="1">
          <mxGeometry x="510" y="670" width="120" height="60" as="geometry"/>
        </mxCell>
        <mxCell id="RlJLiBgnfKAc0p-ZitWW-30" style="edgeStyle=orthogonalEdgeStyle;rounded=0;orthogonalLoop=1;jettySize=auto;html=1;" parent="1" source="RlJLiBgnfKAc0p-ZitWW-28" target="RlJLiBgnfKAc0p-ZitWW-31" edge="1">
          <mxGeometry relative="1" as="geometry">
            <mxPoint x="280" y="850" as="targetPoint"/>
          </mxGeometry>
        </mxCell>
        <mxCell id="RlJLiBgnfKAc0p-ZitWW-32" style="edgeStyle=orthogonalEdgeStyle;rounded=0;orthogonalLoop=1;jettySize=auto;html=1;" parent="1" source="RlJLiBgnfKAc0p-ZitWW-28" target="RlJLiBgnfKAc0p-ZitWW-33" edge="1">
          <mxGeometry relative="1" as="geometry">
            <mxPoint x="140" y="700" as="targetPoint"/>
          </mxGeometry>
        </mxCell>
        <mxCell id="RlJLiBgnfKAc0p-ZitWW-28" value="If The Client Closes The Chat Box" style="rhombus;whiteSpace=wrap;html=1;" parent="1" vertex="1">
          <mxGeometry x="220" y="640" width="120" height="120" as="geometry"/>
        </mxCell>
        <mxCell id="RlJLiBgnfKAc0p-ZitWW-37" style="edgeStyle=orthogonalEdgeStyle;rounded=0;orthogonalLoop=1;jettySize=auto;html=1;exitX=0.5;exitY=1;exitDx=0;exitDy=0;entryX=0.5;entryY=0;entryDx=0;entryDy=0;" parent="1" source="RlJLiBgnfKAc0p-ZitWW-31" target="RlJLiBgnfKAc0p-ZitWW-36" edge="1">
          <mxGeometry relative="1" as="geometry"/>
        </mxCell>
        <mxCell id="RlJLiBgnfKAc0p-ZitWW-31" value="He Is Disconnected From The Server&amp;nbsp;" style="rounded=0;whiteSpace=wrap;html=1;" parent="1" vertex="1">
          <mxGeometry x="220" y="820" width="120" height="60" as="geometry"/>
        </mxCell>
        <mxCell id="RlJLiBgnfKAc0p-ZitWW-33" value="Client Continues To Chat / Use Chat Box" style="rounded=0;whiteSpace=wrap;html=1;" parent="1" vertex="1">
          <mxGeometry x="40" y="670" width="120" height="60" as="geometry"/>
        </mxCell>
        <mxCell id="RlJLiBgnfKAc0p-ZitWW-34" value="YES" style="text;html=1;strokeColor=none;fillColor=none;align=center;verticalAlign=middle;whiteSpace=wrap;rounded=0;" parent="1" vertex="1">
          <mxGeometry x="280" y="770" width="40" height="20" as="geometry"/>
        </mxCell>
        <mxCell id="RlJLiBgnfKAc0p-ZitWW-35" value="NO" style="text;html=1;strokeColor=none;fillColor=none;align=center;verticalAlign=middle;whiteSpace=wrap;rounded=0;" parent="1" vertex="1">
          <mxGeometry x="175" y="680" width="40" height="20" as="geometry"/>
        </mxCell>
        <mxCell id="RlJLiBgnfKAc0p-ZitWW-44" style="edgeStyle=orthogonalEdgeStyle;rounded=0;orthogonalLoop=1;jettySize=auto;html=1;" parent="1" source="RlJLiBgnfKAc0p-ZitWW-36" target="RlJLiBgnfKAc0p-ZitWW-45" edge="1">
          <mxGeometry relative="1" as="geometry">
            <mxPoint x="460" y="900" as="targetPoint"/>
          </mxGeometry>
        </mxCell>
        <mxCell id="RlJLiBgnfKAc0p-ZitWW-36" value="If The Client Wants To Enter Again&amp;nbsp;" style="rhombus;whiteSpace=wrap;html=1;" parent="1" vertex="1">
          <mxGeometry x="210" y="920" width="140" height="120" as="geometry"/>
        </mxCell>
        <mxCell id="RlJLiBgnfKAc0p-ZitWW-39" value="" style="endArrow=none;html=1;entryX=0;entryY=0.5;entryDx=0;entryDy=0;" parent="1" target="RlJLiBgnfKAc0p-ZitWW-36" edge="1">
          <mxGeometry width="50" height="50" relative="1" as="geometry">
            <mxPoint x="10" y="980" as="sourcePoint"/>
            <mxPoint x="80" y="1060" as="targetPoint"/>
          </mxGeometry>
        </mxCell>
        <mxCell id="RlJLiBgnfKAc0p-ZitWW-40" value="" style="endArrow=none;html=1;" parent="1" edge="1">
          <mxGeometry width="50" height="50" relative="1" as="geometry">
            <mxPoint x="10" y="310" as="sourcePoint"/>
            <mxPoint x="10" y="980" as="targetPoint"/>
          </mxGeometry>
        </mxCell>
        <mxCell id="RlJLiBgnfKAc0p-ZitWW-41" value="" style="endArrow=classic;html=1;" parent="1" edge="1">
          <mxGeometry width="50" height="50" relative="1" as="geometry">
            <mxPoint x="10" y="310" as="sourcePoint"/>
            <mxPoint x="380" y="310" as="targetPoint"/>
          </mxGeometry>
        </mxCell>
        <mxCell id="RlJLiBgnfKAc0p-ZitWW-42" value="YES" style="text;html=1;strokeColor=none;fillColor=none;align=center;verticalAlign=middle;whiteSpace=wrap;rounded=0;" parent="1" vertex="1">
          <mxGeometry x="120" y="950" width="40" height="20" as="geometry"/>
        </mxCell>
        <mxCell id="RlJLiBgnfKAc0p-ZitWW-46" style="edgeStyle=orthogonalEdgeStyle;rounded=0;orthogonalLoop=1;jettySize=auto;html=1;" parent="1" source="RlJLiBgnfKAc0p-ZitWW-45" target="RlJLiBgnfKAc0p-ZitWW-47" edge="1">
          <mxGeometry relative="1" as="geometry">
            <mxPoint x="590" y="900" as="targetPoint"/>
          </mxGeometry>
        </mxCell>
        <mxCell id="RlJLiBgnfKAc0p-ZitWW-45" value="Client Exits App" style="rounded=0;whiteSpace=wrap;html=1;" parent="1" vertex="1">
          <mxGeometry x="400" y="870" width="120" height="60" as="geometry"/>
        </mxCell>
        <mxCell id="RlJLiBgnfKAc0p-ZitWW-47" value="STOP" style="ellipse;whiteSpace=wrap;html=1;" parent="1" vertex="1">
          <mxGeometry x="570" y="860" width="120" height="80" as="geometry"/>
        </mxCell>
      </root>
    </mxGraphModel>
  </diagram>
</mxfile>
